<svg xmlns="http://www.w3.org/2000/svg" xmlns:xlink="http://www.w3.org/1999/xlink" viewBox="0 0 692.27 697.66"><defs><style>.cls-1{fill:#fff;}.cls-2{fill:#e85d21;}.cls-3,.cls-4{fill:#286499;}.cls-4{font-size:16px;font-family:MyriadPro-Regular, Myriad Pro;}</style><image id="image" width="1631" height="1668" xlink:href="../../Downloads/Two-leafs.png"/></defs><g id="Layer_2" data-name="Layer 2"><g id="Sanjeeavni-Hero-Bg"><path class="cls-1" d="M345.31,679.5A329.5,329.5,0,0,1,112.31,117a329.5,329.5,0,1,1,466,466A327.33,327.33,0,0,1,345.31,679.5Z"/><path class="cls-2" d="M345.31,21A329.09,329.09,0,0,1,473.37,653.15,329.09,329.09,0,0,1,217.25,46.85,327,327,0,0,1,345.31,21m0-1c-182.26,0-330,147.75-330,330s147.74,330,330,330,330-147.75,330-330S527.56,20,345.31,20Z"/><circle class="cls-3" cx="345.31" cy="350" r="228"/><use transform="matrix(0.03, 0.04, -0.04, 0.03, 344.31, 0)" xlink:href="#image"/><use transform="matrix(0, 0.05, -0.05, 0, 606.09, 119.61)" xlink:href="#image"/><use transform="matrix(-0.03, 0.04, -0.04, -0.03, 692.27, 330.07)" xlink:href="#image"/><use transform="matrix(-0.05, 0.01, -0.01, -0.05, 601.22, 586.15)" xlink:href="#image"/><use transform="matrix(-0.03, -0.03, 0.03, -0.03, 349.55, 697.66)" xlink:href="#image"/><use transform="matrix(-0.01, -0.05, 0.05, -0.01, 87.04, 581.56)" xlink:href="#image"/><use transform="matrix(0.03, -0.03, 0.03, 0.03, 0, 355.66)" xlink:href="#image"/><use transform="matrix(0.05, -0.01, 0.01, 0.05, 86.16, 116.89)" xlink:href="#image"/><text class="cls-4" transform="translate(66.48 310.42) rotate(-81.88)"> </text><text class="cls-4" transform="translate(67.13 305.93) rotate(-80.98)"> </text><text class="cls-4" transform="matrix(0.17, -0.99, 0.99, 0.17, 67.86, 301.43)"> </text><text class="cls-4" transform="translate(68.65 296.94) rotate(-79.16)"> </text><text class="cls-4" transform="translate(69.47 292.51) rotate(-77.56)">H</text><text class="cls-4" transform="matrix(0.25, -0.97, 0.97, 0.25, 71.99, 281.25)">e</text><text class="cls-4" transform="translate(74.3 272.4) rotate(-73.7)">a</text><text class="cls-4" transform="translate(76.82 263.92) rotate(-72.33)">l</text><text class="cls-4" transform="translate(78.33 259.22) rotate(-71.34)">i</text><text class="cls-4" transform="translate(79.87 254.6) rotate(-69.85)">n</text><text class="cls-4" transform="translate(83.33 245.22) rotate(-67.84)">g</text><text class="cls-4" transform="translate(87.17 235.92) rotate(-66.38)"> </text><text class="cls-4" transform="translate(88.98 231.75) rotate(-65.05)">L</text><text class="cls-4" transform="translate(92.68 223.9) rotate(-63.7)">i</text><text class="cls-4" transform="matrix(0.46, -0.89, 0.89, 0.46, 94.84, 219.51)">v</text><text class="cls-4" transform="matrix(0.49, -0.87, 0.87, 0.49, 98.87, 211.85)">e</text><text class="cls-4" transform="matrix(0.52, -0.86, 0.86, 0.52, 103.39, 203.89)">s</text><text class="cls-4" transform="translate(107.28 197.51) rotate(-57.69)"> </text><text class="cls-4" transform="matrix(0.55, -0.84, 0.84, 0.55, 109.72, 193.67)"> </text><text class="cls-4" transform="translate(112.21 189.87) rotate(-55.87)"> </text><text class="cls-4" transform="translate(114.77 186.12) rotate(-54.96)"> </text><text class="cls-4" transform="translate(117.4 182.38) rotate(-54.05)"> </text><text class="cls-4" transform="matrix(0.6, -0.8, 0.8, 0.6, 120.08, 178.7)"> </text><text class="cls-4" transform="translate(122.81 175.08) rotate(-52.23)"> </text><text class="cls-4" transform="translate(125.61 171.48) rotate(-51.32)"> </text><text class="cls-4" transform="matrix(0.64, -0.77, 0.77, 0.64, 128.46, 167.93)"> </text><text class="cls-4" transform="matrix(0.65, -0.76, 0.76, 0.65, 131.37, 164.43)"> </text><text class="cls-4" transform="matrix(0.66, -0.75, 0.75, 0.66, 134.33, 160.98)"> </text><text class="cls-4" transform="matrix(0.67, -0.74, 0.74, 0.67, 137.34, 157.57)"> </text><text class="cls-4" transform="matrix(0.69, -0.73, 0.73, 0.69, 140.41, 154.22)"> </text><text class="cls-4" transform="matrix(0.7, -0.72, 0.72, 0.7, 143.55, 150.9)"> </text><text class="cls-4" transform="translate(146.72 147.64) rotate(-44.93)"> </text><text class="cls-4" transform="translate(149.95 144.44) rotate(-44.02)"> </text><text class="cls-4" transform="matrix(0.73, -0.68, 0.68, 0.73, 153.22, 141.29)"> </text><text class="cls-4" transform="translate(156.56 138.18) rotate(-42.18)"> </text><text class="cls-4" transform="matrix(0.75, -0.66, 0.66, 0.75, 159.93, 135.13)"> </text><text class="cls-4" transform="translate(163.35 132.14) rotate(-40.35)"> </text><text class="cls-4" transform="translate(166.84 129.19) rotate(-39.43)"> </text><text class="cls-4" transform="matrix(0.78, -0.62, 0.62, 0.78, 170.35, 126.32)"> </text><text class="cls-4" transform="matrix(0.79, -0.61, 0.61, 0.79, 173.91, 123.5)"> </text><text class="cls-4" transform="matrix(0.8, -0.6, 0.6, 0.8, 177.54, 120.72)"> </text><text class="cls-4" transform="translate(181.19 118.01) rotate(-35.75)"> </text><text class="cls-4" transform="matrix(0.82, -0.57, 0.57, 0.82, 184.88, 115.36)"> </text><text class="cls-4" transform="translate(188.62 112.77) rotate(-33.9)"> </text><text class="cls-4" transform="matrix(0.85, -0.53, 0.53, 0.85, 192.35, 110.22)">H</text><text class="cls-4" transform="matrix(0.86, -0.5, 0.5, 0.86, 202.14, 104.1)">e</text><text class="cls-4" transform="matrix(0.88, -0.47, 0.47, 0.88, 210.03, 99.54)">a</text><text class="cls-4" transform="matrix(0.89, -0.45, 0.45, 0.89, 217.85, 95.37)">l</text><text class="cls-4" transform="translate(222.25 93.14) rotate(-25.89)">i</text><text class="cls-4" transform="matrix(0.91, -0.41, 0.41, 0.91, 226.63, 91)">n</text><text class="cls-4" transform="translate(235.73 86.9) rotate(-22.29)">g</text><text class="cls-4" transform="translate(245.07 83.13) rotate(-20.79)"> </text><text class="cls-4" transform="translate(249.32 81.5) rotate(-19.41)">L</text><text class="cls-4" transform="translate(257.5 78.66) rotate(-18.01)">i</text><text class="cls-4" transform="translate(262.16 77.13) rotate(-16.59)">v</text><text class="cls-4" transform="translate(270.45 74.68) rotate(-14.76)">e</text><text class="cls-4" transform="translate(279.29 72.38) rotate(-13.04)">s</text><text class="cls-4" transform="translate(286.59 70.71) rotate(-11.79)"> </text><text class="cls-4" transform="matrix(0.98, -0.19, 0.19, 0.98, 291.03, 69.8)"> </text><text class="cls-4" transform="translate(295.51 68.95) rotate(-9.91)"> </text><text class="cls-4" transform="matrix(0.99, -0.16, 0.16, 0.99, 300, 68.17)"> </text><text class="cls-4" transform="matrix(0.99, -0.14, 0.14, 0.99, 304.48, 67.48)"> </text><text class="cls-4" transform="translate(308.98 66.85) rotate(-7.09)"> </text><text class="cls-4" transform="matrix(0.99, -0.11, 0.11, 0.99, 313.51, 66.3)"> </text><text class="cls-4" transform="translate(318.03 65.82) rotate(-5.22)"> </text><text class="cls-4" transform="translate(322.57 65.41) rotate(-4.29)"> </text><text class="cls-4" transform="translate(327.11 65.08) rotate(-3.36)"> </text><text class="cls-4" transform="matrix(1, -0.04, 0.04, 1, 331.63, 64.83)"> </text><text class="cls-4" transform="matrix(1, -0.03, 0.03, 1, 336.18, 64.64)"> </text><text class="cls-4" transform="translate(340.77 64.54) rotate(-0.94)"> </text><text class="cls-4" transform="translate(345.26 64.48) rotate(0.94)"> </text><text class="cls-4" transform="translate(349.83 64.53) rotate(1.26)"> </text><text class="cls-4" transform="translate(354.38 64.64) rotate(2.18)"> </text><text class="cls-4" transform="matrix(1, 0.05, -0.05, 1, 358.94, 64.82)"> </text><text class="cls-4" transform="translate(363.49 65.08) rotate(4.05)"> </text><text class="cls-4" transform="translate(368.01 65.41) rotate(4.98)"> </text><text class="cls-4" transform="matrix(0.99, 0.1, -0.1, 0.99, 372.54, 65.81)"> </text><text class="cls-4" transform="translate(377.05 66.29) rotate(6.84)"> </text><text class="cls-4" transform="translate(381.57 66.84) rotate(7.78)"> </text><text class="cls-4" transform="matrix(0.99, 0.15, -0.15, 0.99, 386.09, 67.47)"> </text><text class="cls-4" transform="matrix(0.99, 0.17, -0.17, 0.99, 390.59, 68.17)"> </text><text class="cls-4" transform="translate(395.07 68.94) rotate(10.6)"> </text><text class="cls-4" transform="matrix(0.98, 0.2, -0.2, 0.98, 399.54, 69.79)"> </text><text class="cls-4" transform="translate(404 70.71) rotate(12.49)"> </text><text class="cls-4" transform="translate(408.43 71.7) rotate(13.43)"> </text><text class="cls-4" transform="translate(412.85 72.77) rotate(14.38)"> </text><text class="cls-4" transform="translate(417.26 73.9) rotate(15.32)"> </text><text class="cls-4" transform="translate(421.62 75.06) rotate(16.99)">H</text><text class="cls-4" transform="matrix(0.94, 0.33, -0.33, 0.94, 432.65, 78.48)">e</text><text class="cls-4" transform="matrix(0.93, 0.36, -0.36, 0.93, 441.27, 81.49)">a</text><text class="cls-4" transform="translate(449.52 84.7) rotate(22.41)">l</text><text class="cls-4" transform="translate(454.07 86.58) rotate(23.42)">i</text><text class="cls-4" transform="matrix(0.91, 0.42, -0.42, 0.91, 458.54, 88.5)">n</text><text class="cls-4" transform="matrix(0.89, 0.45, -0.45, 0.89, 467.6, 92.74)">g</text><text class="cls-4" transform="matrix(0.88, 0.48, -0.48, 0.88, 476.54, 97.35)"> </text><text class="cls-4" transform="matrix(0.87, 0.5, -0.5, 0.87, 480.54, 99.51)">L</text><text class="cls-4" transform="translate(488.04 103.86) rotate(31.25)">i</text><text class="cls-4" transform="translate(492.23 106.39) rotate(32.65)">v</text><text class="cls-4" transform="matrix(0.82, 0.57, -0.57, 0.82, 499.5, 111.07)">e</text><text class="cls-4" transform="matrix(0.81, 0.59, -0.59, 0.81, 507.04, 116.27)">s</text><text class="cls-4" transform="matrix(0.79, 0.61, -0.61, 0.79, 513.06, 120.71)"> </text><text class="cls-4" transform="translate(516.67 123.47) rotate(38.27)"> </text><text class="cls-4" transform="matrix(0.78, 0.63, -0.63, 0.78, 520.23, 126.29)"> </text><text class="cls-4" transform="translate(523.76 129.18) rotate(40.11)"> </text><text class="cls-4" transform="matrix(0.75, 0.66, -0.66, 0.75, 527.23, 132.12)"> </text><text class="cls-4" transform="translate(530.65 135.1) rotate(41.94)"> </text><text class="cls-4" transform="translate(534.04 138.16) rotate(42.86)"> </text><text class="cls-4" transform="matrix(0.72, 0.69, -0.69, 0.72, 537.36, 141.26)"> </text><text class="cls-4" transform="matrix(0.71, 0.7, -0.7, 0.71, 540.64, 144.41)"> </text><text class="cls-4" transform="matrix(0.7, 0.71, -0.71, 0.7, 543.88, 147.63)"> </text><text class="cls-4" transform="translate(547.05 150.88) rotate(46.52)"> </text><text class="cls-4" transform="translate(550.17 154.19) rotate(47.43)"> </text><text class="cls-4" transform="translate(553.24 157.54) rotate(48.34)"> </text><text class="cls-4" transform="translate(556.26 160.95) rotate(49.25)"> </text><text class="cls-4" transform="translate(559.22 164.4) rotate(50.17)"> </text><text class="cls-4" transform="matrix(0.63, 0.78, -0.78, 0.63, 562.13, 167.9)"> </text><text class="cls-4" transform="matrix(0.62, 0.79, -0.79, 0.62, 564.99, 171.45)"> </text><text class="cls-4" transform="translate(567.79 175.05) rotate(52.9)"> </text><text class="cls-4" transform="translate(570.51 178.67) rotate(53.81)"> </text><text class="cls-4" transform="translate(573.18 182.34) rotate(54.72)"> </text><text class="cls-4" transform="translate(575.81 186.07) rotate(55.63)"> </text><text class="cls-4" transform="matrix(0.55, 0.83, -0.83, 0.55, 578.37, 189.83)"> </text><text class="cls-4" transform="matrix(0.54, 0.84, -0.84, 0.54, 580.87, 193.63)"> </text><text class="cls-4" transform="translate(583.31 197.47) rotate(58.36)"> </text><text class="cls-4" transform="matrix(0.5, 0.87, -0.87, 0.5, 585.71, 201.3)">H</text><text class="cls-4" transform="matrix(0.47, 0.88, -0.88, 0.47, 591.46, 211.32)">e</text><text class="cls-4" transform="matrix(0.44, 0.9, -0.9, 0.44, 595.72, 219.39)">a</text><text class="cls-4" transform="matrix(0.42, 0.91, -0.91, 0.42, 599.58, 227.35)">l</text><text class="cls-4" transform="matrix(0.4, 0.91, -0.91, 0.4, 601.64, 231.83)">i</text><text class="cls-4" transform="translate(603.63 236.29) rotate(67.69)">n</text><text class="cls-4" transform="translate(607.41 245.54) rotate(69.7)">g</text><text class="cls-4" transform="matrix(0.32, 0.95, -0.95, 0.32, 610.86, 255.02)"> </text><text class="cls-4" transform="translate(612.33 259.3) rotate(72.49)">L</text><text class="cls-4" transform="translate(614.91 267.59) rotate(73.85)">i</text><text class="cls-4" transform="translate(616.28 272.29) rotate(75.22)">v</text><text class="cls-4" transform="matrix(0.23, 0.97, -0.97, 0.23, 618.47, 280.65)">e</text><text class="cls-4" transform="translate(620.51 289.57) rotate(78.64)">s</text><text class="cls-4" transform="translate(621.95 296.91) rotate(79.83)"> </text><text class="cls-4" transform="translate(622.75 301.39) rotate(80.74)"> </text><text class="cls-4" transform="translate(623.47 305.87) rotate(81.64)"> </text><text class="cls-4" transform="translate(624.12 310.39) rotate(82.54)"> </text><text class="cls-4" transform="translate(624.7 314.89) rotate(83.44)"> </text><text class="cls-4" transform="translate(625.21 319.4) rotate(84.34)"> </text><text class="cls-4" transform="translate(625.65 323.94) rotate(85.24)"> </text><text class="cls-4" transform="translate(626.03 328.5) rotate(86.13)"> </text><text class="cls-4" transform="translate(626.32 333.02) rotate(87.02)"> </text><text class="cls-4" transform="translate(626.55 337.58) rotate(87.92)"> </text><text class="cls-4" transform="translate(626.71 342.11) rotate(88.8)"> </text><text class="cls-4" transform="matrix(0.02, 1, -1, 0.02, 626.78, 346.69)"> </text><text class="cls-4" transform="translate(626.82 351.22) rotate(90.92)"> </text><text class="cls-4" transform="translate(626.75 355.79) rotate(91.45)"> </text><text class="cls-4" transform="translate(626.63 360.31) rotate(92.34)"> </text><text class="cls-4" transform="matrix(-0.06, 1, -1, -0.06, 626.44, 364.88)"> </text><text class="cls-4" transform="translate(626.17 369.43) rotate(94.12)"> </text><text class="cls-4" transform="matrix(-0.09, 1, -1, -0.09, 625.83, 373.95)"> </text><text class="cls-4" transform="translate(625.43 378.49) rotate(95.91)"> </text><text class="cls-4" transform="translate(624.95 383) rotate(96.81)"> </text><text class="cls-4" transform="translate(624.4 387.52) rotate(97.71)"> </text><text class="cls-4" transform="translate(623.78 392.05) rotate(98.62)"> </text><text class="cls-4" transform="translate(623.14 396.5) rotate(100.21)">H</text><text class="cls-4" transform="translate(621.05 407.86) rotate(102.27)">e</text><text class="cls-4" transform="translate(619.09 416.78) rotate(104.06)">a</text><text class="cls-4" transform="matrix(-0.27, 0.96, -0.96, -0.27, 616.9, 425.36)">l</text><text class="cls-4" transform="matrix(-0.28, 0.96, -0.96, -0.28, 615.58, 430.11)">i</text><text class="cls-4" transform="translate(614.22 434.8) rotate(107.92)">n</text><text class="cls-4" transform="matrix(-0.34, 0.94, -0.94, -0.34, 611.13, 444.29)">g</text><text class="cls-4" transform="translate(607.64 453.76) rotate(111.39)"> </text><text class="cls-4" transform="translate(606.01 457.97) rotate(112.71)">L</text><text class="cls-4" transform="translate(602.62 465.98) rotate(114.07)">i</text><text class="cls-4" transform="matrix(-0.43, 0.9, -0.9, -0.43, 600.63, 470.45)">v</text><text class="cls-4" transform="matrix(-0.46, 0.89, -0.89, -0.46, 596.9, 478.26)">e</text><text class="cls-4" transform="translate(592.71 486.36) rotate(118.87)">s</text><text class="cls-4" transform="matrix(-0.5, 0.87, -0.87, -0.5, 589.07, 492.9)"> </text><text class="cls-4" transform="matrix(-0.51, 0.86, -0.86, -0.51, 586.77, 496.84)"> </text><text class="cls-4" transform="matrix(-0.53, 0.85, -0.85, -0.53, 584.42, 500.74)"> </text><text class="cls-4" transform="translate(582.01 504.6) rotate(122.81)"> </text><text class="cls-4" transform="translate(579.54 508.41) rotate(123.72)"> </text><text class="cls-4" transform="translate(577.01 512.19) rotate(124.63)"> </text><text class="cls-4" transform="translate(574.41 515.94) rotate(125.54)"> </text><text class="cls-4" transform="matrix(-0.59, 0.8, -0.8, -0.59, 571.76, 519.63)"> </text><text class="cls-4" transform="matrix(-0.61, 0.79, -0.79, -0.61, 569.05, 523.29)"> </text><text class="cls-4" transform="translate(566.27 526.91) rotate(128.27)"> </text><text class="cls-4" transform="matrix(-0.63, 0.78, -0.78, -0.63, 563.46, 530.46)"> </text><text class="cls-4" transform="translate(560.58 533.98) rotate(130.09)"> </text><text class="cls-4" transform="translate(557.64 537.45) rotate(131)"> </text><text class="cls-4" transform="matrix(-0.67, 0.74, -0.74, -0.67, 554.63, 540.9)"> </text><text class="cls-4" transform="matrix(-0.68, 0.73, -0.73, -0.68, 551.61, 544.26)"> </text><text class="cls-4" transform="translate(548.49 547.6) rotate(133.74)"> </text><text class="cls-4" transform="translate(545.34 550.88) rotate(134.65)"> </text><text class="cls-4" transform="matrix(-0.71, 0.7, -0.7, -0.71, 542.14, 554.11)"> </text><text class="cls-4" transform="matrix(-0.73, 0.69, -0.69, -0.73, 538.87, 557.3)"> </text><text class="cls-4" transform="translate(535.58 560.42) rotate(137.4)"> </text><text class="cls-4" transform="translate(532.23 563.49) rotate(138.31)"> </text><text class="cls-4" transform="matrix(-0.76, 0.65, -0.65, -0.76, 528.81, 566.52)"> </text><text class="cls-4" transform="translate(525.36 569.47) rotate(140.15)"> </text><text class="cls-4" transform="translate(521.87 572.38) rotate(141.07)"> </text><text class="cls-4" transform="translate(518.31 575.24) rotate(141.99)"> </text><text class="cls-4" transform="translate(514.72 578.03) rotate(142.91)"> </text><text class="cls-4" transform="translate(511.09 580.76) rotate(143.83)"> </text><text class="cls-4" transform="matrix(-0.82, 0.57, -0.57, -0.82, 507.48, 583.45)">H</text><text class="cls-4" transform="translate(497.93 589.97) rotate(147.57)">e</text><text class="cls-4" transform="translate(490.21 594.85) rotate(149.4)">a</text><text class="cls-4" transform="translate(482.58 599.32) rotate(150.81)">l</text><text class="cls-4" transform="translate(478.27 601.71) rotate(151.81)">i</text><text class="cls-4" transform="translate(473.98 604.04) rotate(153.35)">n</text><text class="cls-4" transform="translate(465.05 608.5) rotate(155.41)">g</text><text class="cls-4" transform="translate(455.87 612.64) rotate(156.91)"> </text><text class="cls-4" transform="translate(451.71 614.43) rotate(158.27)">L</text><text class="cls-4" transform="translate(443.62 617.61) rotate(159.68)">i</text><text class="cls-4" transform="matrix(-0.95, 0.32, -0.32, -0.95, 439.05, 619.31)">v</text><text class="cls-4" transform="translate(430.86 622.11) rotate(162.92)">e</text><text class="cls-4" transform="translate(422.13 624.76) rotate(164.64)">s</text><text class="cls-4" transform="matrix(-0.97, 0.24, -0.24, -0.97, 414.9, 626.71)"> </text><text class="cls-4" transform="translate(410.48 627.82) rotate(166.83)"> </text><text class="cls-4" transform="translate(406.05 628.84) rotate(167.78)"> </text><text class="cls-4" transform="translate(401.61 629.79) rotate(168.72)"> </text><text class="cls-4" transform="translate(397.13 630.68) rotate(169.66)"> </text><text class="cls-4" transform="translate(392.66 631.48) rotate(170.6)"> </text><text class="cls-4" transform="translate(388.16 632.22) rotate(171.54)"> </text><text class="cls-4" transform="translate(383.67 632.88) rotate(172.48)"> </text><text class="cls-4" transform="translate(379.15 633.46) rotate(173.42)"> </text><text class="cls-4" transform="matrix(-1, 0.1, -0.1, -1, 374.64, 633.97)"> </text><text class="cls-4" transform="translate(370.11 634.41) rotate(175.29)"> </text><text class="cls-4" transform="translate(365.58 634.78) rotate(176.22)"> </text><text class="cls-4" transform="translate(361.04 635.07) rotate(177.15)"> </text><text class="cls-4" transform="translate(356.5 635.28) rotate(178.07)"> </text><text class="cls-4" transform="translate(351.95 635.43) rotate(179)"> </text><text class="cls-4" transform="translate(347.37 635.47) rotate(179.06)"> </text><text class="cls-4" transform="matrix(-1, -0.02, 0.02, -1, 342.85, 635.5)"> </text><text class="cls-4" transform="translate(338.29 635.42) rotate(-178.23)"> </text><text class="cls-4" transform="matrix(-1, -0.05, 0.05, -1, 333.75, 635.27)"> </text><text class="cls-4" transform="translate(329.2 635.04) rotate(-176.38)"> </text><text class="cls-4" transform="translate(324.67 634.75) rotate(-175.45)"> </text><text class="cls-4" transform="matrix(-1, -0.1, 0.1, -1, 320.13, 634.38)"> </text><text class="cls-4" transform="translate(315.61 633.94) rotate(-173.58)"> </text><text class="cls-4" transform="matrix(-0.99, -0.13, 0.13, -0.99, 311.08, 633.42)"> </text><text class="cls-4" transform="translate(306.58 632.83) rotate(-171.71)"> </text><text class="cls-4" transform="matrix(-0.99, -0.16, 0.16, -0.99, 302.06, 632.16)"> </text><text class="cls-4" transform="matrix(-0.98, -0.18, 0.18, -0.98, 297.58, 631.42)"> </text><text class="cls-4" transform="translate(293.12 630.61) rotate(-168.88)"> </text><text class="cls-4" transform="translate(288.65 629.72) rotate(-167.94)"> </text><text class="cls-4" transform="matrix(-0.97, -0.23, 0.23, -0.97, 284.18, 628.76)"> </text><text class="cls-4" transform="translate(279.77 627.73) rotate(-166.05)"> </text><text class="cls-4" transform="matrix(-0.97, -0.26, 0.26, -0.97, 275.36, 626.62)"> </text><text class="cls-4" transform="translate(270.97 625.45) rotate(-164.17)"> </text><text class="cls-4" transform="matrix(-0.96, -0.29, 0.29, -0.96, 266.59, 624.19)"> </text><text class="cls-4" transform="translate(262.25 622.92) rotate(-161.56)">H</text><text class="cls-4" transform="translate(251.31 619.23) rotate(-159.42)">e</text><text class="cls-4" transform="translate(242.79 616) rotate(-157.56)">a</text><text class="cls-4" transform="translate(234.61 612.58) rotate(-156.14)">l</text><text class="cls-4" transform="translate(230.11 610.58) rotate(-155.13)">i</text><text class="cls-4" transform="translate(225.68 608.55) rotate(-153.6)">n</text><text class="cls-4" transform="translate(216.74 604.09) rotate(-151.54)">g</text><text class="cls-4" transform="translate(207.9 599.24) rotate(-150.04)"> </text><text class="cls-4" transform="translate(203.97 596.99) rotate(-148.69)">L</text><text class="cls-4" transform="matrix(-0.84, -0.54, 0.54, -0.84, 196.56, 592.44)">i</text><text class="cls-4" transform="matrix(-0.83, -0.56, 0.56, -0.83, 192.47, 589.83)">v</text><text class="cls-4" transform="translate(185.3 584.96) rotate(-144.12)">e</text><text class="cls-4" transform="translate(177.91 579.58) rotate(-142.44)">s</text><text class="cls-4" transform="translate(172 575) rotate(-141.23)"> </text><text class="cls-4" transform="translate(168.45 572.14) rotate(-140.31)"> </text><text class="cls-4" transform="matrix(-0.76, -0.65, 0.65, -0.76, 164.96, 569.23)"> </text><text class="cls-4" transform="translate(161.52 566.27) rotate(-138.47)"> </text><text class="cls-4" transform="translate(158.11 563.23) rotate(-137.55)"> </text><text class="cls-4" transform="translate(154.76 560.16) rotate(-136.64)"> </text><text class="cls-4" transform="matrix(-0.72, -0.7, 0.7, -0.72, 151.46, 557.03)"> </text><text class="cls-4" transform="translate(148.2 553.84) rotate(-134.81)"> </text><text class="cls-4" transform="translate(145 550.61) rotate(-133.9)"> </text><text class="cls-4" transform="translate(141.86 547.33) rotate(-132.99)"> </text><text class="cls-4" transform="translate(138.77 543.99) rotate(-132.07)"> </text><text class="cls-4" transform="translate(135.72 540.61) rotate(-131.16)"> </text><text class="cls-4" transform="matrix(-0.65, -0.76, 0.76, -0.65, 132.74, 537.18)"> </text><text class="cls-4" transform="translate(129.8 533.7) rotate(-129.34)"> </text><text class="cls-4" transform="translate(126.92 530.17) rotate(-128.43)"> </text><text class="cls-4" transform="translate(124.1 526.6) rotate(-127.51)"> </text><text class="cls-4" transform="translate(121.33 522.97) rotate(-126.6)"> </text><text class="cls-4" transform="matrix(-0.58, -0.81, 0.81, -0.58, 118.63, 519.33)"> </text><text class="cls-4" transform="matrix(-0.57, -0.82, 0.82, -0.57, 115.98, 515.61)"> </text><text class="cls-4" transform="matrix(-0.56, -0.83, 0.83, -0.56, 113.39, 511.88)"> </text><text class="cls-4" transform="translate(110.87 508.1) rotate(-122.96)"> </text><text class="cls-4" transform="matrix(-0.53, -0.85, 0.85, -0.53, 108.4, 504.28)"> </text><text class="cls-4" transform="matrix(-0.52, -0.86, 0.86, -0.52, 105.99, 500.41)"> </text><text class="cls-4" transform="translate(103.64 496.51) rotate(-120.23)"> </text><text class="cls-4" transform="matrix(-0.49, -0.87, 0.87, -0.49, 101.37, 492.58)"> </text><text class="cls-4" transform="translate(99.14 488.6) rotate(-118.41)"> </text><text class="cls-4" transform="translate(96.95 484.63) rotate(-116.79)">H</text><text class="cls-4" transform="translate(91.8 474.33) rotate(-114.73)">e</text><text class="cls-4" transform="translate(88 466.03) rotate(-112.93)">a</text><text class="cls-4" transform="translate(84.58 457.86) rotate(-111.55)">l</text><text class="cls-4" transform="translate(82.78 453.26) rotate(-110.57)">i</text><text class="cls-4" transform="translate(81.05 448.71) rotate(-109.07)">n</text><text class="cls-4" transform="translate(77.8 439.25) rotate(-107.07)">g</text><text class="cls-4" transform="translate(74.89 429.61) rotate(-105.61)"> </text><text class="cls-4" transform="matrix(-0.25, -0.97, 0.97, -0.25, 73.66, 425.25)">L</text><text class="cls-4" transform="translate(71.55 416.81) rotate(-102.93)">i</text><text class="cls-4" transform="translate(70.45 412.07) rotate(-101.56)">v</text><text class="cls-4" transform="translate(68.73 403.58) rotate(-99.81)">e</text><text class="cls-4" transform="matrix(-0.14, -0.99, 0.99, -0.14, 67.2, 394.56)">s</text></g></g></svg>